<?xml version="1.0" encoding="UTF-8"?>
<svg width="130px" height="31px" viewBox="0 0 130 31" version="1.1" xmlns="http://www.w3.org/2000/svg" xmlns:xlink="http://www.w3.org/1999/xlink">
    <title>编组 29备份</title>
    <defs>
        <linearGradient x1="50%" y1="0%" x2="50%" y2="100%" id="linearGradient-1">
            <stop stop-color="#03989A" offset="0.0892052284%"></stop>
            <stop stop-color="#00E0AA" offset="27.6270726%"></stop>
            <stop stop-color="#00E0AA" offset="100%"></stop>
        </linearGradient>
        <linearGradient x1="76.9268497%" y1="19.0427718%" x2="43.8649532%" y2="83.965707%" id="linearGradient-2">
            <stop stop-color="#03989A" offset="0%"></stop>
            <stop stop-color="#00E0AA" offset="40.9965889%"></stop>
            <stop stop-color="#00E0AA" offset="100%"></stop>
        </linearGradient>
        <linearGradient x1="4.61191801%" y1="24.9921283%" x2="61.7941027%" y2="61.6186009%" id="linearGradient-3">
            <stop stop-color="#03989A" offset="0%"></stop>
            <stop stop-color="#00E0AA" offset="68.7017694%"></stop>
            <stop stop-color="#00E0AA" offset="100%"></stop>
        </linearGradient>
        <linearGradient x1="50%" y1="0%" x2="50%" y2="100%" id="linearGradient-4">
            <stop stop-color="#00E0AA" offset="0%"></stop>
            <stop stop-color="#00E0AA" offset="71.4856341%"></stop>
            <stop stop-color="#00E0AA" stop-opacity="0.5" offset="99.9918904%"></stop>
        </linearGradient>
    </defs>
    <g id="页面1" stroke="none" stroke-width="1" fill="none" fill-rule="evenodd">
        <g id="首页-1" transform="translate(-30.000000, -8.000000)">
            <g id="Group-26复制-3" transform="translate(0.000000, -0.288672)">
                <g id="编组-29备份" transform="translate(30.000000, 9.000000)">
                    <g id="zibiao" opacity="0.95" transform="translate(36.612343, 7.519842)" fill="#FFFFFF">
                        <path d="M9.28675853,3.22039427 L5.94155617,3.22039427 L5.26741972,7.064829 L8.63767008,7.064829 C9.22025179,7.064829 9.72380278,6.88215141 10.1478912,6.51550065 C10.5728433,6.14971361 10.8345516,5.69193998 10.9343117,5.14261163 C11.0345037,4.6101259 10.9381985,4.15623903 10.6471235,3.78224661 C10.3560486,3.40782234 9.90259361,3.22039427 9.28675853,3.22039427 M10.3599354,12.1823926 C10.4601273,11.5829683 10.35173,11.092805 10.0356071,10.7097435 C9.71948416,10.326682 9.24486792,10.1353672 8.61262208,10.1353672 L4.74313936,10.1353672 L4.01977066,14.2544661 L7.83872554,14.2544661 C8.48781399,14.2544661 9.0410291,14.0592645 9.49880272,13.6675657 C9.95657635,13.2767307 10.2437645,12.781817 10.3599354,12.1823926 M14.379706,5.04285153 C14.1629114,6.49045266 13.4222682,7.64741071 12.1573446,8.51286198 C13.4391108,9.41156662 13.9633912,10.7512023 13.7301857,12.5322008 C13.5138229,13.9966445 12.8440051,15.186856 11.7211641,16.1015395 C10.5974594,17.0170867 9.0954437,17.4748604 7.21468508,17.4748604 L0,17.4748604 L3.07053818,0 L9.68623079,0 C11.2176131,0 12.4406461,0.474184378 13.3561933,1.422985 C14.2713087,2.37135375 14.6124796,3.57840779 14.379706,5.04285153" id="Fill-1"></path>
                        <path d="M24.7895215,4.9925828 L28.3597239,4.9925828 L21.6187913,17.4746876 C20.6039158,19.3722888 19.4923033,20.6989686 18.286113,21.4564544 C17.0790589,22.2139402 15.6936459,22.5507925 14.1294421,22.467875 L14.6537224,19.4716171 C15.5355844,19.4880278 16.2347689,19.3260796 16.7512757,18.9849087 C17.266487,18.6437378 17.7493086,18.0322213 18.1988768,17.1499275 L18.273589,17.0255512 L15.3779548,4.9925828 L18.6730612,4.9925828 L20.5205665,13.4052528 L24.7895215,4.9925828 Z" id="Fill-3"></path>
                        <polygon id="Fill-5" points="41.6000918 0 41.0261473 3.29510638 36.3076241 3.29510638 33.8114623 17.4748604 30.3660679 17.4748604 32.8630935 3.29510638 28.1691864 3.29510638 28.7435627 0"></polygon>
                        <path d="M44.3713497,6.98994414 C45.2696225,5.45899367 46.6675595,4.71014511 48.5651607,4.74339848 L47.9411203,8.33821703 C47.3581067,8.27171029 46.7884808,8.30928228 46.2309471,8.45050112 C45.6734134,8.59171997 45.1361772,8.91216151 44.620534,9.41139387 C44.1048909,9.9110581 43.7632881,10.5683519 43.5970213,11.3837072 L42.5238445,17.4746876 L39.3034502,17.4746876 L41.5003317,4.9925828 L44.720726,4.9925828 L44.3713497,6.98994414 Z" id="Fill-7"></path>
                        <path d="M54.8557909,14.7537416 C55.8205704,14.7537416 56.6782481,14.4505746 57.4270967,13.842513 C58.1759452,13.2353152 58.6587669,12.432052 58.8751297,11.4335873 L58.9252257,11.034115 C59.0578073,10.0192395 58.8457631,9.21165774 58.2882293,8.61223341 C57.7302637,8.0136728 56.9779603,7.71396063 56.0291597,7.71396063 C55.0466738,7.71396063 54.1816544,8.0261968 53.4328059,8.64980539 C52.6839573,9.27427772 52.2179783,10.127205 52.0348689,11.2085872 C51.8517594,12.2575798 52.0262316,13.1100752 52.5591492,13.7678009 C53.091635,14.4250947 53.8568943,14.7537416 54.8557909,14.7537416 L54.8557909,14.7537416 Z M59.9984025,4.99236687 L63.2187968,4.99236687 L61.0219152,17.4749035 L57.801521,17.4749035 L58.0010412,16.3265827 C56.9192271,17.3250475 55.5381327,17.8242798 53.8568943,17.8242798 C51.9761357,17.8242798 50.5786305,17.1341645 49.6635151,15.7526382 C48.747536,14.3706801 48.4650983,12.7654494 48.8144746,10.933923 C49.1301657,9.15335638 49.9338607,7.6599779 51.2234003,6.45292386 C52.51294,5.24673354 54.0568463,4.64342245 55.8546875,4.64342245 C57.6179797,4.64342245 58.8997458,5.31712703 59.6986903,6.66539992 L59.9984025,4.99236687 Z" id="Fill-9"></path>
                        <path d="M70.0337937,14.7537416 C71.049101,14.7537416 71.9348498,14.4294133 72.6923356,13.779893 C73.4498214,13.1312364 73.9119136,12.2908332 74.0781804,11.2586832 C74.2777006,10.1768691 74.1032284,9.31573646 73.5539001,8.67485339 C73.0045717,8.03440217 72.2306752,7.71396063 71.2322105,7.71396063 C70.2501565,7.71396063 69.3764998,8.0261968 68.6108087,8.64980539 C67.8455494,9.27427772 67.3709331,10.127205 67.1878237,11.2085872 C67.0047142,12.2575798 67.183505,13.1100752 67.724628,13.7678009 C68.2653191,14.4250947 69.0353289,14.7537416 70.0337937,14.7537416 L70.0337937,14.7537416 Z M76.0751099,4.31861911e-05 L79.2955042,4.31861911e-05 L76.224966,17.4749035 L73.0045717,17.4749035 L73.2045238,16.2764867 C72.1222779,17.3086367 70.7243408,17.8242798 69.0102809,17.8242798 C67.1295223,17.8242798 65.7315853,17.1341645 64.8164699,15.7526382 C63.9009227,14.3706801 63.618485,12.7654494 63.9674294,10.933923 C64.2839842,9.15335638 65.0868155,7.6599779 66.3763551,6.45292386 C67.6663267,5.24673354 69.210233,4.64342245 71.0076423,4.64342245 C72.8050515,4.64342245 74.1032284,5.33396964 74.9017411,6.7154959 L76.0751099,4.31861911e-05 Z" id="Fill-11"></path>
                        <path d="M83.1895598,10.0353048 L89.5310201,10.0353048 C89.5141775,9.18669612 89.2602427,8.5587689 88.7692157,8.1506594 C88.2781887,7.74298175 87.6498297,7.53914293 86.8845704,7.53914293 C86.0519406,7.53914293 85.315616,7.75593761 84.674733,8.18823138 C84.0342817,8.62138888 83.539368,9.23636024 83.1895598,10.0353048 M82.1910951,6.45301023 C83.6054429,5.24681991 85.2365853,4.64350882 87.0845224,4.64350882 C88.9315958,4.64350882 90.3878342,5.27964142 91.4528056,6.55320219 C92.518209,7.8263311 92.8757906,9.38664819 92.5264144,11.2337216 C92.4927291,11.5999405 92.3765583,12.0413034 92.1770381,12.5569465 L82.7404235,12.5569465 C82.8064983,13.3554591 83.1148477,13.9466781 83.6641761,14.3293078 C84.2135044,14.7123693 84.9040516,14.9032522 85.7358177,14.9032522 C86.9843305,14.9032522 88.0078432,14.4791638 88.8067877,13.6301233 L91.0788132,15.4525806 C89.6804444,17.0340589 87.8165284,17.8243662 85.4862015,17.8243662 C83.4227653,17.8243662 81.8542428,17.1670724 80.7806341,15.8524847 C79.7074573,14.5374652 79.3287144,12.91496 79.6448373,10.9841054 C79.9277068,9.17028537 80.7763155,7.66006427 82.1910951,6.45301023" id="Fill-13"></path>
                    </g>
                    <g id="tubiao">
                        <path d="M22.9247698,10.9027356 L20.7079976,16.3376221 C21.2271701,17.0176437 21.637222,17.7837535 21.9053038,18.6117865 L21.9053038,18.6117865 L22.9493125,21.8374524 C22.9534659,21.8502901 22.9553538,21.8631278 22.9591296,21.8759656 L22.9591296,21.8759656 L27.4353405,10.9027356 L22.9247698,10.9027356 Z" id="Fill-15" fill="url(#linearGradient-1)"></path>
                        <path d="M30.5316475,0.154127924 C30.2386454,-0.0512755965 29.7866822,-0.0425912565 29.967543,0.128074904 C30.7045791,0.824332426 31.1644716,1.81094897 31.1644716,2.90517581 C31.1644716,5.01018432 29.4623409,6.71760108 27.3592203,6.726663 L16.4422498,6.726663 C17.698836,7.53732727 18.6801664,8.76295195 19.1725308,10.2585463 L19.3824652,10.896279 C19.3832204,10.8985444 19.3839756,10.9011875 19.3847307,10.9030754 L22.9249208,10.9030754 L27.3422292,10.9030754 L27.3422292,10.9162907 C30.5157891,10.8079252 33.0561474,8.20224565 33.0561474,5.00225514 C33.0561474,2.99617259 32.0582035,1.22418965 30.5316475,0.154127924" id="Fill-17" fill="#00E0AA"></path>
                        <path d="M7.07169584,14.437262 L11.1016072,24.3321235 C11.7185729,25.8469744 13.1737662,26.8256618 14.8094428,26.8256618 L14.8094428,26.8256618 L18.5425763,26.8256618 C19.6779593,26.8256618 20.7544399,26.2774156 21.4223789,25.3587635 L21.4223789,25.3587635 C22.0906955,24.4408665 22.2802407,23.2473361 21.9309792,22.1674573 L21.9309792,22.1674573 L20.8869705,18.9414138 L20.8869705,18.9410362 C20.0143831,16.2470029 17.5261309,14.4368844 14.6942809,14.4368844 L14.6942809,14.4368844 L7.07169584,14.437262 Z M13.2821317,18.6132968 L14.6942809,18.6132968 C15.7088384,18.6132968 16.6006823,19.2619792 16.9133186,20.2274513 L16.9133186,20.2274513 L17.5370807,22.1549972 C17.615995,22.3992915 17.434379,22.6492494 17.1780022,22.6492494 L17.1780022,22.6492494 L14.926115,22.6492494 L13.2821317,18.6132968 Z" id="Fill-19" fill="url(#linearGradient-2)"></path>
                        <path d="M12.8131773,10.9031132 C13.4403377,10.9031132 13.9927373,11.303348 14.1890789,11.898414 L14.1890789,11.898414 L14.3986358,12.5365242 C14.5455144,12.9828238 14.4718863,13.4574419 14.1962529,13.8380425 L14.1962529,13.8380425 C13.9206195,14.2186431 13.4931989,14.4368844 13.0234894,14.4368844 L13.0234894,14.4368844 L11.5792459,14.4368844 L10.4767123,11.7386977 L5.96500886,11.7386977 L8.77382649,18.6132968 L13.0231118,18.6132968 L13.023867,18.6132968 C14.8487111,18.6132968 16.5096856,17.7648745 17.5797473,16.2862712 L17.5797473,16.2862712 C18.6501866,14.8072904 18.9363922,12.9650775 18.3658688,11.2312302 L18.3658688,11.2312302 L18.1559344,10.59312 C17.9229675,9.88553505 17.3324324,9.64010805 16.625225,9.63973047 L16.625225,9.63973047 C15.0201324,9.63973047 12.8131773,10.9031132 12.8131773,10.9031132" id="Fill-21" fill="url(#linearGradient-3)"></path>
                        <path d="M2.98023895,0.000113041644 C2.85337207,0.00313368165 2.66949061,0.0522190818 2.52412231,0.154165682 L2.52412231,0.154165682 C0.997566363,1.22422741 0,2.99621035 0,5.0022929 L0,5.0022929 C0,8.20228341 2.53998067,10.8075854 5.71391816,10.9159509 L5.71391816,10.9159509 L5.71391816,10.9031132 L10.1350024,10.9031132 L12.8131773,10.9031132 C13.4403377,10.9031132 13.9927373,11.303348 14.1890789,11.898414 L14.1890789,11.898414 L14.3986358,12.5365242 C14.5232372,12.9148594 14.480193,13.3105632 14.2985771,13.6552938 L14.2985771,13.6552938 L18.3466123,14.779727 C18.7343869,13.6454767 18.7555314,12.4149435 18.3658688,11.2312302 L18.3658688,11.2312302 L18.1559344,10.59312 C17.3947331,8.28044247 15.2481908,6.72670076 12.8131773,6.72670076 L12.8131773,6.72670076 L12.5126237,6.72670076 L5.71391816,6.72670076 L5.69881496,6.72670076 C3.59456161,6.71877158 1.89129823,5.01097724 1.89129823,2.90521357 L1.89129823,2.90521357 C1.89129823,1.81098673 2.35156825,0.824370184 3.08860441,0.127735082 L3.08860441,0.127735082 C3.17355991,0.0473105418 3.11843323,0.00313368165 3.00515923,0.000113041644 L3.00515923,0.000113041644 L2.98023895,0.000113041644 Z" id="Fill-23" fill="url(#linearGradient-4)"></path>
                    </g>
                </g>
            </g>
        </g>
    </g>
</svg>